<mxfile host="app.diagrams.net" modified="2024-10-28T08:04:28.227Z" agent="Mozilla/5.0 (Macintosh; Intel Mac OS X 10.15; rv:131.0) Gecko/20100101 Firefox/131.0" etag="tjOExareYHUsfm9IpA-B" version="24.3.1" type="github">
  <diagram name="Page-1" id="xAnc5ZOHKXB9NMVIz8jD">
    <mxGraphModel dx="435" dy="278" grid="1" gridSize="10" guides="1" tooltips="1" connect="1" arrows="1" fold="1" page="1" pageScale="1" pageWidth="827" pageHeight="1169" math="0" shadow="0">
      <root>
        <mxCell id="0" />
        <mxCell id="1" parent="0" />
        <mxCell id="nG1fQxjMgpLoanXoC54D-8" style="edgeStyle=orthogonalEdgeStyle;rounded=0;orthogonalLoop=1;jettySize=auto;html=1;entryX=0;entryY=0.75;entryDx=0;entryDy=0;" edge="1" parent="1" source="nG1fQxjMgpLoanXoC54D-1" target="nG1fQxjMgpLoanXoC54D-5">
          <mxGeometry relative="1" as="geometry" />
        </mxCell>
        <mxCell id="nG1fQxjMgpLoanXoC54D-9" style="edgeStyle=orthogonalEdgeStyle;rounded=0;orthogonalLoop=1;jettySize=auto;html=1;entryX=0;entryY=0.5;entryDx=0;entryDy=0;" edge="1" parent="1" source="nG1fQxjMgpLoanXoC54D-1" target="nG1fQxjMgpLoanXoC54D-6">
          <mxGeometry relative="1" as="geometry" />
        </mxCell>
        <mxCell id="nG1fQxjMgpLoanXoC54D-10" style="edgeStyle=orthogonalEdgeStyle;rounded=0;orthogonalLoop=1;jettySize=auto;html=1;entryX=0;entryY=0.5;entryDx=0;entryDy=0;startArrow=classic;startFill=1;" edge="1" parent="1" source="nG1fQxjMgpLoanXoC54D-1" target="nG1fQxjMgpLoanXoC54D-7">
          <mxGeometry relative="1" as="geometry" />
        </mxCell>
        <mxCell id="nG1fQxjMgpLoanXoC54D-1" value="" style="shape=mxgraph.signs.tech.cell_phone;html=1;pointerEvents=1;fillColor=#000000;strokeColor=none;verticalLabelPosition=bottom;verticalAlign=top;align=center;" vertex="1" parent="1">
          <mxGeometry x="40" y="110" width="50" height="98" as="geometry" />
        </mxCell>
        <mxCell id="nG1fQxjMgpLoanXoC54D-2" value="" style="fontColor=#0066CC;verticalAlign=top;verticalLabelPosition=bottom;labelPosition=center;align=center;html=1;outlineConnect=0;fillColor=#CCCCCC;strokeColor=#6881B3;gradientColor=none;gradientDirection=north;strokeWidth=2;shape=mxgraph.networks.radio_tower;" vertex="1" parent="1">
          <mxGeometry x="300" y="108" width="55" height="100" as="geometry" />
        </mxCell>
        <mxCell id="nG1fQxjMgpLoanXoC54D-5" value="" style="whiteSpace=wrap;html=1;aspect=fixed;" vertex="1" parent="1">
          <mxGeometry x="130" y="89" width="40" height="40" as="geometry" />
        </mxCell>
        <mxCell id="nG1fQxjMgpLoanXoC54D-6" value="" style="whiteSpace=wrap;html=1;aspect=fixed;" vertex="1" parent="1">
          <mxGeometry x="130" y="138" width="40" height="40" as="geometry" />
        </mxCell>
        <mxCell id="nG1fQxjMgpLoanXoC54D-7" value="" style="whiteSpace=wrap;html=1;aspect=fixed;" vertex="1" parent="1">
          <mxGeometry x="130" y="189" width="40" height="40" as="geometry" />
        </mxCell>
        <mxCell id="nG1fQxjMgpLoanXoC54D-11" value="" style="curved=1;endArrow=classic;html=1;rounded=0;exitX=1;exitY=0.5;exitDx=0;exitDy=0;entryX=0.5;entryY=0.15;entryDx=0;entryDy=0;entryPerimeter=0;startArrow=classic;startFill=1;" edge="1" parent="1" source="nG1fQxjMgpLoanXoC54D-6" target="nG1fQxjMgpLoanXoC54D-2">
          <mxGeometry width="50" height="50" relative="1" as="geometry">
            <mxPoint x="360" y="360" as="sourcePoint" />
            <mxPoint x="440" y="330" as="targetPoint" />
            <Array as="points">
              <mxPoint x="240" y="190" />
              <mxPoint x="270" y="130" />
            </Array>
          </mxGeometry>
        </mxCell>
        <mxCell id="nG1fQxjMgpLoanXoC54D-12" value="" style="curved=1;endArrow=classic;html=1;rounded=0;exitX=1;exitY=0.5;exitDx=0;exitDy=0;entryX=0.5;entryY=0.15;entryDx=0;entryDy=0;entryPerimeter=0;startArrow=classic;startFill=1;" edge="1" parent="1" source="nG1fQxjMgpLoanXoC54D-7" target="nG1fQxjMgpLoanXoC54D-2">
          <mxGeometry width="50" height="50" relative="1" as="geometry">
            <mxPoint x="180" y="168" as="sourcePoint" />
            <mxPoint x="310" y="160" as="targetPoint" />
            <Array as="points">
              <mxPoint x="240" y="220" />
              <mxPoint x="280" y="140" />
            </Array>
          </mxGeometry>
        </mxCell>
        <mxCell id="nG1fQxjMgpLoanXoC54D-13" value="" style="curved=1;endArrow=classic;html=1;rounded=0;exitX=1;exitY=0.5;exitDx=0;exitDy=0;entryX=0.5;entryY=0.15;entryDx=0;entryDy=0;entryPerimeter=0;startArrow=classic;startFill=1;" edge="1" parent="1" source="nG1fQxjMgpLoanXoC54D-5" target="nG1fQxjMgpLoanXoC54D-2">
          <mxGeometry width="50" height="50" relative="1" as="geometry">
            <mxPoint x="190" y="178" as="sourcePoint" />
            <mxPoint x="310" y="160" as="targetPoint" />
            <Array as="points">
              <mxPoint x="220" y="158" />
              <mxPoint x="260" y="100" />
            </Array>
          </mxGeometry>
        </mxCell>
        <mxCell id="nG1fQxjMgpLoanXoC54D-27" style="edgeStyle=orthogonalEdgeStyle;rounded=0;orthogonalLoop=1;jettySize=auto;html=1;entryX=1;entryY=0.5;entryDx=0;entryDy=0;" edge="1" parent="1" source="nG1fQxjMgpLoanXoC54D-18" target="nG1fQxjMgpLoanXoC54D-20">
          <mxGeometry relative="1" as="geometry" />
        </mxCell>
        <mxCell id="nG1fQxjMgpLoanXoC54D-28" style="edgeStyle=orthogonalEdgeStyle;rounded=0;orthogonalLoop=1;jettySize=auto;html=1;" edge="1" parent="1" source="nG1fQxjMgpLoanXoC54D-18">
          <mxGeometry relative="1" as="geometry">
            <mxPoint x="710" y="158" as="targetPoint" />
          </mxGeometry>
        </mxCell>
        <mxCell id="nG1fQxjMgpLoanXoC54D-29" style="edgeStyle=orthogonalEdgeStyle;rounded=0;orthogonalLoop=1;jettySize=auto;html=1;entryX=1;entryY=0.5;entryDx=0;entryDy=0;startArrow=classic;startFill=1;" edge="1" parent="1" source="nG1fQxjMgpLoanXoC54D-18" target="nG1fQxjMgpLoanXoC54D-22">
          <mxGeometry relative="1" as="geometry" />
        </mxCell>
        <mxCell id="nG1fQxjMgpLoanXoC54D-18" value="" style="shape=mxgraph.signs.tech.cell_phone;html=1;pointerEvents=1;fillColor=#000000;strokeColor=none;verticalLabelPosition=bottom;verticalAlign=top;align=center;flipV=0;flipH=1;" vertex="1" parent="1">
          <mxGeometry x="750" y="109" width="45" height="98" as="geometry" />
        </mxCell>
        <mxCell id="nG1fQxjMgpLoanXoC54D-19" value="" style="fontColor=#0066CC;verticalAlign=top;verticalLabelPosition=bottom;labelPosition=center;align=center;html=1;outlineConnect=0;fillColor=#CCCCCC;strokeColor=#6881B3;gradientColor=none;gradientDirection=north;strokeWidth=2;shape=mxgraph.networks.radio_tower;flipV=0;flipH=0;" vertex="1" parent="1">
          <mxGeometry x="480" y="107" width="55" height="100" as="geometry" />
        </mxCell>
        <mxCell id="nG1fQxjMgpLoanXoC54D-20" value="" style="whiteSpace=wrap;html=1;aspect=fixed;flipV=0;flipH=0;" vertex="1" parent="1">
          <mxGeometry x="665" y="88" width="40" height="40" as="geometry" />
        </mxCell>
        <mxCell id="nG1fQxjMgpLoanXoC54D-21" value="" style="whiteSpace=wrap;html=1;aspect=fixed;flipV=0;flipH=0;" vertex="1" parent="1">
          <mxGeometry x="665" y="137" width="40" height="40" as="geometry" />
        </mxCell>
        <mxCell id="nG1fQxjMgpLoanXoC54D-22" value="" style="whiteSpace=wrap;html=1;aspect=fixed;flipV=0;flipH=0;" vertex="1" parent="1">
          <mxGeometry x="665" y="188" width="40" height="40" as="geometry" />
        </mxCell>
        <mxCell id="nG1fQxjMgpLoanXoC54D-23" value="" style="curved=1;endArrow=classic;html=1;rounded=0;exitX=0;exitY=0.5;exitDx=0;exitDy=0;entryX=0.5;entryY=0.15;entryDx=0;entryDy=0;entryPerimeter=0;startArrow=classic;startFill=1;" edge="1" source="nG1fQxjMgpLoanXoC54D-21" target="nG1fQxjMgpLoanXoC54D-19" parent="1">
          <mxGeometry width="50" height="50" relative="1" as="geometry">
            <mxPoint x="475" y="362" as="sourcePoint" />
            <mxPoint x="395" y="332" as="targetPoint" />
            <Array as="points">
              <mxPoint x="595" y="192" />
              <mxPoint x="565" y="132" />
            </Array>
          </mxGeometry>
        </mxCell>
        <mxCell id="nG1fQxjMgpLoanXoC54D-24" value="" style="curved=1;endArrow=classic;html=1;rounded=0;entryX=0.5;entryY=0.15;entryDx=0;entryDy=0;entryPerimeter=0;startArrow=classic;startFill=1;" edge="1" target="nG1fQxjMgpLoanXoC54D-19" parent="1">
          <mxGeometry width="50" height="50" relative="1" as="geometry">
            <mxPoint x="660" y="208" as="sourcePoint" />
            <mxPoint x="525" y="148" as="targetPoint" />
            <Array as="points">
              <mxPoint x="595" y="208" />
              <mxPoint x="555" y="128" />
            </Array>
          </mxGeometry>
        </mxCell>
        <mxCell id="nG1fQxjMgpLoanXoC54D-25" value="" style="curved=1;endArrow=classic;html=1;rounded=0;exitX=0;exitY=0.5;exitDx=0;exitDy=0;entryX=0.5;entryY=0.15;entryDx=0;entryDy=0;entryPerimeter=0;startArrow=classic;startFill=1;" edge="1" source="nG1fQxjMgpLoanXoC54D-20" target="nG1fQxjMgpLoanXoC54D-19" parent="1">
          <mxGeometry width="50" height="50" relative="1" as="geometry">
            <mxPoint x="645" y="212" as="sourcePoint" />
            <mxPoint x="525" y="194" as="targetPoint" />
            <Array as="points">
              <mxPoint x="615" y="192" />
              <mxPoint x="575" y="108" />
            </Array>
          </mxGeometry>
        </mxCell>
        <mxCell id="nG1fQxjMgpLoanXoC54D-35" style="edgeStyle=orthogonalEdgeStyle;rounded=0;orthogonalLoop=1;jettySize=auto;html=1;entryX=0.5;entryY=1;entryDx=0;entryDy=0;entryPerimeter=0;" edge="1" parent="1" source="nG1fQxjMgpLoanXoC54D-2" target="nG1fQxjMgpLoanXoC54D-19">
          <mxGeometry relative="1" as="geometry">
            <Array as="points">
              <mxPoint x="328" y="230" />
              <mxPoint x="508" y="230" />
            </Array>
          </mxGeometry>
        </mxCell>
        <mxCell id="nG1fQxjMgpLoanXoC54D-36" value="" style="whiteSpace=wrap;html=1;aspect=fixed;" vertex="1" parent="1">
          <mxGeometry x="340" y="220" width="20" height="20" as="geometry" />
        </mxCell>
        <mxCell id="nG1fQxjMgpLoanXoC54D-38" value="" style="whiteSpace=wrap;html=1;aspect=fixed;" vertex="1" parent="1">
          <mxGeometry x="370" y="220" width="20" height="20" as="geometry" />
        </mxCell>
        <mxCell id="nG1fQxjMgpLoanXoC54D-39" value="" style="whiteSpace=wrap;html=1;aspect=fixed;" vertex="1" parent="1">
          <mxGeometry x="404" y="220" width="20" height="20" as="geometry" />
        </mxCell>
        <mxCell id="nG1fQxjMgpLoanXoC54D-41" value="" style="whiteSpace=wrap;html=1;aspect=fixed;" vertex="1" parent="1">
          <mxGeometry x="430" y="220" width="20" height="20" as="geometry" />
        </mxCell>
        <mxCell id="nG1fQxjMgpLoanXoC54D-42" value="" style="whiteSpace=wrap;html=1;aspect=fixed;" vertex="1" parent="1">
          <mxGeometry x="460" y="220" width="20" height="20" as="geometry" />
        </mxCell>
      </root>
    </mxGraphModel>
  </diagram>
</mxfile>
